<?xml version="1.0" encoding="utf-8" ?><svg xmlns="http://www.w3.org/2000/svg" xmlns:xlink="http://www.w3.org/1999/xlink" width="4000" height="4000" viewBox="0 0 4000 4000"><path transform="scale(40 40)" d="M40.5613 6.03429C43.7707 6.3443 44.8881 8.9989 45.8839 11.6642C49.2184 20.5893 52.977 27.3288 61.4853 32.2094C64.5729 33.9806 73.4829 36.8357 75.1861 39.4946C75.2654 39.618 75.3369 39.7462 75.4002 39.8786C77.6479 44.6084 66.2647 47.8912 63.1894 49.4626C57.3525 52.445 53.7925 55.2474 50.2166 60.9149C47.388 65.3982 46.3518 70.2784 43.3152 74.5009C43.028 74.8983 41.8059 75.4512 41.3161 75.6708C40.487 75.5252 38.993 75.1001 38.4626 74.433C36.5997 71.9181 35.0915 68.0013 33.9133 65.1122C29.2616 53.7061 19.8185 49.7158 9.38943 45.1786C8.46358 44.7758 6.39138 43.1714 6.22379 42.1273C5.49993 37.6174 13.7538 35.2924 17.0301 33.7934C18.9984 32.8973 20.8991 31.8598 22.7174 30.689C27.5054 27.5993 31.4549 22.3256 33.791 17.1205C35.3417 13.6655 36.7845 7.13065 40.5613 6.03429Z"/><path transform="scale(40 40)" d="M76.8981 61.9586C77.43 61.991 78.3826 62.062 78.7021 62.4445C81.0991 65.4786 81.8907 68.8305 84.7009 71.7693C86.6474 73.8049 93.0216 75.7258 93.6636 78.1168C93.5974 80.2928 88.4455 81.6679 85.9731 83.5527C81.4022 87.0374 81.0666 91.2146 78.4247 93.9584C77.928 94.0057 77.5387 93.9244 77.0513 93.8493C75.6128 92.9975 73.8955 88.3406 72.462 86.3535C69.8269 82.7007 62.9533 81.0263 61.8542 78.3285C61.8868 76.4837 63.3995 75.9668 65.0809 75.1442C69.4008 73.0305 72.5316 70.6998 74.5138 66.1668C75.0352 64.9745 76.0162 62.9878 76.8981 61.9586Z"/></svg>